<svg id="logosandtypes_com" xmlns="http://www.w3.org/2000/svg" viewBox="0 0 150 150"><path d="M0 0h150v150H0V0z" fill="none"/><path d="M107.3 18.8c-9.8-5.7-20.9-8.7-32.2-8.6-11.3-.1-22.4 2.9-32.2 8.6-9.7 5.6-17.7 13.7-23.3 23.4-5.7 9.7-8.7 20.8-8.6 32.1-.1 12.6 3.6 24.9 10.6 35.3 6.8 10.4 16.5 18.5 27.8 23.5-.2-6 .1-10.9 1.1-14.8l8.3-34.9c-1.4-2.7-2.1-6.1-2.1-10.2 0-4.7 1.2-8.7 3.6-11.9 2.4-3.2 5.3-4.8 8.8-4.8 2.8 0 4.9.9 6.4 2.8 1.5 2 2.3 4.4 2.3 6.9-.1 2.1-.4 4.3-1 6.3-.7 2.6-4.3 14.6-4.8 16.5-.8 3.4-.1 6.3 1.9 8.7 2 2.4 5 3.7 8.2 3.6 6 0 10.8-3.3 14.7-9.9 3.8-6.6 5.7-14.7 5.7-24.1 0-7.3-2.3-13.2-7-17.8s-11.3-6.9-19.7-6.8c-9.4 0-17 3-22.8 9.1-5.7 5.8-8.8 13.6-8.7 21.7 0 5 1.4 9.2 4.3 12.6.9 1 1.3 2.3.9 3.6-.1.3-1.2 4.7-1.3 5.1-.4 1.8-1.5 2.3-3.2 1.7-4.3-1.8-7.8-5.1-9.8-9.3-2.2-4.4-3.3-9.5-3.3-15.3 0-3.8.6-7.6 1.8-11.2 1.3-3.9 3.2-7.5 5.6-10.8 2.6-3.5 5.6-6.6 9.1-9.2 3.9-2.9 8.3-5 12.9-6.4 5.3-1.6 10.8-2.5 16.4-2.4 7.9 0 15 1.8 21.3 5.3 6.3 3.5 11.1 8 14.4 13.6 3.3 5.4 5 11.6 5 17.9 0 8.4-1.4 15.9-4.3 22.6-2.9 6.7-7 11.9-12.3 15.7-5.2 3.8-11.6 5.8-18 5.7-3.3 0-6.6-.8-9.5-2.4-3-1.6-5-3.5-6.1-5.6-2.5 9.9-4 15.7-4.5 17.6-1.1 4-3.2 8.5-6.5 13.7 28.4 8.5 58.9-3.7 73.8-29.3 5.7-9.8 8.7-20.9 8.6-32.2.1-11.3-2.9-22.4-8.7-32.2-5.8-9.9-13.9-17.9-23.6-23.5z" fill="#db0125"/></svg>